<svg width="183" height="214" viewBox="0 0 183 214" fill="none" xmlns="http://www.w3.org/2000/svg">
<path d="M36.38 94.2715C33.209 101.338 27.0927 118.967 27.9957 132.949C22.4599 136.995 12.0011 147.87 14.4519 159.004C17.4712 172.721 31.4537 157.828 31.7022 157.396C31.6554 158.38 40.405 234.994 64.4353 198.815C68.8396 209.004 80.4149 223.039 91.5014 197.732C102.588 223.039 114.163 209.004 118.567 198.815C142.598 234.994 151.347 158.38 151.301 157.396C151.549 157.828 165.532 172.721 168.551 159.004C171.002 147.87 160.543 136.995 155.007 132.949C155.91 118.967 149.794 101.338 146.623 94.2715H36.38Z" fill="white" stroke="black" stroke-width="4"/>
<path d="M82.6074 133.295C85.5723 137.288 93.2809 142.878 100.397 133.295" stroke="black" stroke-width="3" stroke-linecap="round"/>
<ellipse cx="68.4421" cy="120.066" rx="11.53" ry="11.2437" fill="black"/>
<ellipse cx="114.561" cy="120.066" rx="11.53" ry="11.2437" fill="black"/>
<path fill-rule="evenodd" clip-rule="evenodd" d="M91.3383 93.9773L34.6336 93.4935C24.5097 94.2504 3.80939 88.8553 2 61.2208C2.51697 56.9393 11.8009 57.3826 16.3782 58.1394C21.9787 59.0584 34.5044 57.9448 39.8033 46.1385C42.4117 40.3268 44.3688 35.1438 46.0098 30.7976C48.536 24.1073 50.3135 19.3998 52.566 17.4336C52.8408 17.1937 53.1473 16.914 53.49 16.6013C57.7429 12.7204 67.558 3.76374 91.1767 3.01826L91.1767 3C91.2848 3.00269 91.3925 3.00556 91.5 3.0086C91.6075 3.00556 91.7152 3.00269 91.8233 3L91.8233 3.01826C115.442 3.76374 125.257 12.7204 129.51 16.6013C129.853 16.914 130.159 17.1937 130.434 17.4336C132.686 19.3998 134.464 24.1073 136.99 30.7976C138.631 35.1438 140.588 40.3268 143.197 46.1385C148.496 57.9448 161.021 59.0584 166.622 58.1394C171.199 57.3826 180.483 56.9393 181 61.2208C179.191 88.8553 158.49 94.2504 148.366 93.4935L91.6617 93.9773L91.6617 93.9801L91.5 93.9787L91.3383 93.9801L91.3383 93.9773Z" fill="#FFAE00"/>
<path d="M34.6336 93.4935L34.6507 91.4936L34.5675 91.4929L34.4845 91.4991L34.6336 93.4935ZM91.3383 93.9773L93.3382 93.9718L93.3328 91.9943L91.3553 91.9774L91.3383 93.9773ZM2 61.2208L0.0144223 60.981L-0.0078845 61.1657L0.0042733 61.3514L2 61.2208ZM16.3782 58.1394L16.0519 60.1126L16.0543 60.113L16.3782 58.1394ZM39.8033 46.1385L41.628 46.9575L39.8033 46.1385ZM46.0098 30.7976L47.8809 31.5041V31.5041L46.0098 30.7976ZM52.566 17.4336L51.2508 15.9269L52.566 17.4336ZM53.49 16.6013L54.8381 18.0786V18.0786L53.49 16.6013ZM91.1767 3.01826L91.2398 5.01726L93.18 4.95603L93.1767 3.01492L91.1767 3.01826ZM91.1767 3L91.2266 1.00062L89.1733 0.949413L89.1767 3.00334L91.1767 3ZM91.5 3.0086L91.4435 5.0078L91.5 5.00939L91.5564 5.0078L91.5 3.0086ZM91.8233 3L93.8233 3.00334L93.8267 0.949413L91.7734 1.00062L91.8233 3ZM91.8233 3.01826L89.8233 3.01492L89.82 4.95603L91.7602 5.01726L91.8233 3.01826ZM129.51 16.6013L128.162 18.0786L128.162 18.0786L129.51 16.6013ZM130.434 17.4336L131.749 15.9269V15.9268L130.434 17.4336ZM136.99 30.7976L135.119 31.5041V31.5041L136.99 30.7976ZM143.197 46.1385L141.372 46.9575L143.197 46.1385ZM166.622 58.1394L166.946 60.113L166.948 60.1126L166.622 58.1394ZM181 61.2208L182.996 61.3514L183.008 61.1657L182.986 60.981L181 61.2208ZM148.366 93.4935L148.515 91.4991L148.432 91.4929L148.349 91.4936L148.366 93.4935ZM91.6617 93.9773L91.6447 91.9774L89.6672 91.9943L89.6618 93.9718L91.6617 93.9773ZM91.6617 93.9801L91.6447 95.98L93.6562 95.9972L93.6617 93.9856L91.6617 93.9801ZM91.5 93.9787L91.5171 91.9788L91.5 91.9786L91.4829 91.9788L91.5 93.9787ZM91.3383 93.9801L89.3383 93.9856L89.3438 95.9972L91.3553 95.98L91.3383 93.9801ZM34.6166 95.4935L91.3212 95.9772L91.3553 91.9774L34.6507 91.4936L34.6166 95.4935ZM0.0042733 61.3514C0.944947 75.7182 6.84352 84.5514 14.0451 89.6376C21.1574 94.6607 29.3457 95.8944 34.7827 95.488L34.4845 91.4991C29.7976 91.8495 22.5738 90.7641 16.3526 86.3703C10.2207 82.0395 4.86444 74.3579 3.99573 61.0901L0.0042733 61.3514ZM16.7044 56.1662C14.3128 55.7708 10.6498 55.4458 7.44486 55.8031C5.85508 55.9803 4.21064 56.3422 2.86961 57.0674C1.48126 57.8183 0.244913 59.0721 0.0144223 60.981L3.98558 61.4605C4.01357 61.2287 4.13158 60.9324 4.77239 60.5859C5.46053 60.2137 6.52008 59.931 7.88806 59.7784C10.5986 59.4762 13.8663 59.7513 16.0519 60.1126L16.7044 56.1662ZM37.9787 45.3196C35.587 50.6484 31.5958 53.5447 27.5184 55.0321C23.3866 56.5393 19.2072 56.5769 16.702 56.1658L16.0543 60.113C19.1497 60.621 24.0334 60.5612 28.8892 58.7899C33.7996 56.9986 38.7208 53.4349 41.628 46.9575L37.9787 45.3196ZM44.1388 30.0911C42.4973 34.4384 40.5594 39.5696 37.9787 45.3196L41.628 46.9575C44.2641 41.084 46.2402 35.8493 47.8809 31.5041L44.1388 30.0911ZM51.2508 15.9269C49.7837 17.2075 48.6315 19.2141 47.5744 21.5065C46.4963 23.8443 45.393 26.7695 44.1388 30.0911L47.8809 31.5041C49.1529 28.1354 50.2014 25.3617 51.2068 23.1816C52.233 20.9561 53.0959 19.6258 53.8812 18.9403L51.2508 15.9269ZM52.1419 15.1239C51.7945 15.4409 51.5055 15.7045 51.2508 15.9269L53.8812 18.9403C54.176 18.683 54.5002 18.387 54.8381 18.0786L52.1419 15.1239ZM91.1136 1.01926C79.0515 1.39997 70.4197 3.88236 64.2138 6.82708C58.0025 9.77434 54.3093 13.1461 52.1419 15.1239L54.8381 18.0786C56.9236 16.1756 60.2644 13.1285 65.9286 10.4409C71.5981 7.7507 79.6832 5.38203 91.2398 5.01726L91.1136 1.01926ZM93.1767 3.01492L93.1767 2.99666L89.1767 3.00334L89.1767 3.0216L93.1767 3.01492ZM91.1268 4.99938C91.2327 5.00202 91.3382 5.00483 91.4435 5.0078L91.5564 1.00939C91.4468 1.0063 91.3368 1.00337 91.2266 1.00062L91.1268 4.99938ZM91.7734 1.00062C91.6632 1.00337 91.5532 1.0063 91.4435 1.00939L91.5564 5.0078C91.6617 5.00483 91.7673 5.00202 91.8732 4.99938L91.7734 1.00062ZM93.8233 3.0216L93.8233 3.00334L89.8233 2.99666L89.8233 3.01492L93.8233 3.0216ZM91.7602 5.01726C103.317 5.38203 111.402 7.7507 117.071 10.4409C122.736 13.1285 126.076 16.1756 128.162 18.0786L130.858 15.1239C128.691 13.1461 124.997 9.77434 118.786 6.82708C112.58 3.88236 103.948 1.39997 91.8864 1.01926L91.7602 5.01726ZM128.162 18.0786C128.5 18.387 128.824 18.683 129.119 18.9403L131.749 15.9268C131.494 15.7045 131.206 15.4409 130.858 15.1239L128.162 18.0786ZM129.119 18.9403C129.904 19.6258 130.767 20.9561 131.793 23.1816C132.799 25.3617 133.847 28.1354 135.119 31.5041L138.861 30.0911C137.607 26.7695 136.504 23.8443 135.426 21.5065C134.368 19.2141 133.216 17.2075 131.749 15.9269L129.119 18.9403ZM135.119 31.5041C136.76 35.8493 138.736 41.084 141.372 46.9575L145.021 45.3196C142.441 39.5696 140.503 34.4384 138.861 30.0911L135.119 31.5041ZM141.372 46.9575C144.279 53.4349 149.2 56.9986 154.111 58.7899C158.967 60.5612 163.85 60.621 166.946 60.113L166.298 56.1658C163.793 56.5769 159.613 56.5393 155.482 55.0321C151.404 53.5447 147.413 50.6484 145.021 45.3196L141.372 46.9575ZM166.948 60.1126C169.134 59.7513 172.401 59.4762 175.112 59.7784C176.48 59.931 177.539 60.2137 178.228 60.5859C178.868 60.9324 178.986 61.2287 179.014 61.4605L182.986 60.981C182.755 59.0721 181.519 57.8183 180.13 57.0674C178.789 56.3422 177.145 55.9803 175.555 55.8031C172.35 55.4458 168.687 55.7708 166.296 56.1662L166.948 60.1126ZM179.004 61.0901C178.136 74.3579 172.779 82.0395 166.647 86.3703C160.426 90.7641 153.202 91.8495 148.515 91.4991L148.217 95.488C153.654 95.8944 161.843 94.6607 168.955 89.6376C176.156 84.5514 182.055 75.7182 182.996 61.3514L179.004 61.0901ZM148.349 91.4936L91.6447 91.9774L91.6788 95.9772L148.383 95.4935L148.349 91.4936ZM93.6617 93.9856L93.6617 93.9828L89.6618 93.9718L89.6617 93.9745L93.6617 93.9856ZM91.4829 95.9786L91.6447 95.98L91.6788 91.9801L91.5171 91.9788L91.4829 95.9786ZM91.4829 91.9788L91.3212 91.9801L91.3553 95.98L91.5171 95.9786L91.4829 91.9788ZM93.3383 93.9745L93.3382 93.9718L89.3383 93.9828L89.3383 93.9856L93.3383 93.9745Z" fill="black"/>
<path fill-rule="evenodd" clip-rule="evenodd" d="M91.3442 92.9696L36.2771 92.5913C26.4455 93.1832 6.34307 88.9635 4.58594 67.3494C5.08798 64.0007 14.1037 64.3474 18.5489 64.9393C23.9876 65.6581 36.1516 64.7871 41.2974 55.5529C43.8305 51.0073 45.731 46.9535 47.3247 43.5542C49.7779 38.3214 51.5041 34.6394 53.6915 33.1016C53.9583 32.914 54.2561 32.6952 54.5888 32.4506C58.7189 29.4152 68.2506 22.4098 91.1874 21.8268L91.1874 21.8125C91.2923 21.8146 91.3968 21.8168 91.5012 21.8192C91.6055 21.8168 91.7101 21.8146 91.815 21.8125L91.815 21.8268C114.752 22.4098 124.283 29.4152 128.414 32.4506C128.746 32.6952 129.044 32.914 129.311 33.1016C131.498 34.6394 133.224 38.3214 135.678 43.5541C137.271 46.9535 139.172 51.0073 141.705 55.5529C146.851 64.7871 159.015 65.6581 164.454 64.9393C168.899 64.3474 177.914 64.0007 178.416 67.3494C176.659 88.9635 156.557 93.1832 146.725 92.5913L91.6581 92.9696L91.6581 92.9718L91.5001 92.9707L91.3443 92.9718L91.3442 92.9696Z" fill="#2C2A42"/>
<mask id="path-8-inside-1_1014_173" fill="white">
<path fill-rule="evenodd" clip-rule="evenodd" d="M91.6616 32.8655C85.6247 32.4665 73.4062 36.6987 73.4062 46.8245C73.4062 53.798 79.3837 57.4904 85.5227 60.0852V63.0418C86.3305 63.6531 87.4613 64.4639 88.9153 63.0418V60.2848H90.2077V63.0418C90.2077 63.3371 90.4757 63.9015 91.4997 64V64.0148C91.5555 64.0148 91.6094 64.0136 91.6616 64.0113C91.7137 64.0136 91.7676 64.0148 91.8233 64.0148V64C92.8473 63.9015 93.1153 63.3371 93.1153 63.0418V60.2848H94.4077V63.0418C95.8617 64.464 96.9925 63.6531 97.8003 63.0418V60.0852C103.939 57.4904 109.917 53.798 109.917 46.8245C109.917 36.6988 97.6986 32.4666 91.6616 32.8655Z"/>
</mask>
<path fill-rule="evenodd" clip-rule="evenodd" d="M91.6616 32.8655C85.6247 32.4665 73.4062 36.6987 73.4062 46.8245C73.4062 53.798 79.3837 57.4904 85.5227 60.0852V63.0418C86.3305 63.6531 87.4613 64.4639 88.9153 63.0418V60.2848H90.2077V63.0418C90.2077 63.3371 90.4757 63.9015 91.4997 64V64.0148C91.5555 64.0148 91.6094 64.0136 91.6616 64.0113C91.7137 64.0136 91.7676 64.0148 91.8233 64.0148V64C92.8473 63.9015 93.1153 63.3371 93.1153 63.0418V60.2848H94.4077V63.0418C95.8617 64.464 96.9925 63.6531 97.8003 63.0418V60.0852C103.939 57.4904 109.917 53.798 109.917 46.8245C109.917 36.6988 97.6986 32.4666 91.6616 32.8655Z" fill="white"/>
<path d="M91.6616 32.8655L91.5957 33.8634L91.6616 33.8677L91.7276 33.8634L91.6616 32.8655ZM85.5227 60.0852H86.5227V59.4222L85.912 59.1641L85.5227 60.0852ZM85.5227 63.0418H84.5227V63.539L84.9192 63.8391L85.5227 63.0418ZM88.9153 63.0418L89.6146 63.7566L89.9153 63.4625V63.0418H88.9153ZM88.9153 60.2848V59.2848H87.9153V60.2848H88.9153ZM90.2077 60.2848H91.2077V59.2848H90.2077V60.2848ZM91.4997 64H92.4997V63.0915L91.5954 63.0046L91.4997 64ZM91.4997 64.0148H90.4997V65.0148H91.4997V64.0148ZM91.6616 64.0113L91.7063 63.0123L91.6616 63.0103L91.6169 63.0123L91.6616 64.0113ZM91.8233 64.0148V65.0148H92.8233V64.0148H91.8233ZM91.8233 64L91.7276 63.0046L90.8233 63.0915V64H91.8233ZM93.1153 60.2848V59.2848H92.1153V60.2848H93.1153ZM94.4077 60.2848H95.4077V59.2848H94.4077V60.2848ZM94.4077 63.0418H93.4077V63.4625L93.7084 63.7566L94.4077 63.0418ZM97.8003 63.0418L98.4038 63.8392L98.8003 63.5391V63.0418H97.8003ZM97.8003 60.0852L97.411 59.1641L96.8003 59.4223V60.0852H97.8003ZM74.4062 46.8245C74.4062 42.2316 77.1584 38.9203 80.7826 36.7568C84.4286 34.5804 88.7921 33.678 91.5957 33.8634L91.7276 31.8677C88.4942 31.654 83.73 32.6682 79.7575 35.0395C75.7633 37.4239 72.4062 41.2916 72.4062 46.8245H74.4062ZM85.912 59.1641C82.874 57.88 79.9766 56.3633 77.8461 54.3671C75.7434 52.3971 74.4062 49.9812 74.4062 46.8245H72.4062C72.4062 50.6413 74.0578 53.5584 76.4786 55.8266C78.8716 58.0687 82.0324 59.6956 85.1334 61.0063L85.912 59.1641ZM86.5227 63.0418V60.0852H84.5227V63.0418H86.5227ZM88.2161 62.3269C87.6735 62.8575 87.341 62.8537 87.1531 62.82C86.8573 62.767 86.5529 62.5673 86.1262 62.2444L84.9192 63.8391C85.3003 64.1275 85.9652 64.6389 86.8002 64.7886C87.7432 64.9577 88.7031 64.6482 89.6146 63.7566L88.2161 62.3269ZM87.9153 60.2848V63.0418H89.9153V60.2848H87.9153ZM90.2077 59.2848H88.9153V61.2848H90.2077V59.2848ZM91.2077 63.0418V60.2848H89.2077V63.0418H91.2077ZM91.5954 63.0046C91.4255 62.9882 91.3176 62.9555 91.2546 62.9289C91.193 62.9029 91.1704 62.8813 91.1682 62.8791C91.1598 62.8708 91.2077 62.9114 91.2077 63.0418H89.2077C89.2077 63.9569 89.9783 64.8583 91.404 64.9954L91.5954 63.0046ZM90.4997 64V64.0148H92.4997V64H90.4997ZM91.4997 65.0148C91.5699 65.0148 91.6388 65.0133 91.7063 65.0103L91.6169 63.0123C91.5801 63.0139 91.5411 63.0148 91.4997 63.0148V65.0148ZM91.8233 63.0148C91.782 63.0148 91.743 63.0139 91.7063 63.0123L91.617 65.0103C91.6844 65.0133 91.7532 65.0148 91.8233 65.0148V63.0148ZM90.8233 64V64.0148H92.8233V64H90.8233ZM91.919 64.9954C93.3447 64.8583 94.1153 63.9569 94.1153 63.0418H92.1153C92.1153 62.9114 92.1632 62.8708 92.1548 62.8791C92.1526 62.8813 92.13 62.9029 92.0684 62.9289C92.0054 62.9555 91.8975 62.9882 91.7276 63.0046L91.919 64.9954ZM94.1153 63.0418V60.2848H92.1153V63.0418H94.1153ZM93.1153 61.2848H94.4077V59.2848H93.1153V61.2848ZM93.4077 60.2848V63.0418H95.4077V60.2848H93.4077ZM93.7084 63.7566C94.6199 64.6482 95.5797 64.9577 96.5228 64.7886C97.3578 64.639 98.0227 64.1275 98.4038 63.8392L97.1968 62.2444C96.7701 62.5673 96.4657 62.767 96.1699 62.82C95.982 62.8537 95.6495 62.8576 95.1069 62.3269L93.7084 63.7566ZM98.8003 63.0418V60.0852H96.8003V63.0418H98.8003ZM98.1896 61.0063C101.291 59.6957 104.451 58.0687 106.844 55.8266C109.265 53.5584 110.917 50.6413 110.917 46.8245H108.917C108.917 49.9812 107.58 52.3971 105.477 54.3672C103.346 56.3634 100.449 57.88 97.411 59.1641L98.1896 61.0063ZM110.917 46.8245C110.917 41.2917 107.56 37.424 103.566 35.0396C99.5932 32.6683 94.8291 31.654 91.5957 31.8677L91.7276 33.8634C94.5312 33.6781 98.8946 34.5805 102.54 36.7569C106.165 38.9204 108.917 42.2317 108.917 46.8245H110.917Z" fill="black" mask="url(#path-8-inside-1_1014_173)"/>
<path d="M94.5687 55.868H88.4297V52.7867C88.9143 48.8944 94.4071 49.3811 94.5687 52.7867V55.868Z" fill="black"/>
<ellipse cx="84.2311" cy="47.2752" rx="4.36192" ry="4.37872" fill="black"/>
<ellipse cx="98.7682" cy="47.2752" rx="4.36192" ry="4.37872" fill="black"/>
<path d="M91.633 70.8671L81.1278 66.5173C74.4578 56.0457 74.1244 66.5173 73.7908 66.5173C70.4556 73.8638 75.7361 72.4782 78.7933 70.8671L84.6298 73.4446L78.7933 76.0223C71.5897 72.4136 72.4568 77.3111 73.7908 80.211C75.6584 88.7173 79.238 83.7553 80.7943 80.211L91.633 76.0223L103.472 81.0165C106.674 88.6206 108.919 83.6479 109.642 80.211C111.91 72.6069 107.585 74.5724 105.14 76.5056L98.4697 73.4446L105.14 70.8671C111.009 74.347 110.587 69.4172 109.642 66.5173C107.774 58.1399 104.417 63.0267 102.972 66.5173L91.633 70.8671Z" fill="white" stroke="black"/>
</svg>